# Procedurally generated closed grandstand roof
# No external source asset
mtllib grandstand_roof.mtl
o drone_cju_track_stadium_grandstand_roof
usemtl cju_roof_blue
v 85.500000 -29.000000 7.250000
v 85.500000 29.000000 7.250000
v 85.500000 -29.000000 7.030000
v 85.500000 29.000000 7.030000
v 86.218750 -29.000000 7.431332
v 86.218750 29.000000 7.431332
v 86.218750 -29.000000 7.211332
v 86.218750 29.000000 7.211332
v 86.937500 -29.000000 7.610917
v 86.937500 29.000000 7.610917
v 86.937500 -29.000000 7.390917
v 86.937500 29.000000 7.390917
v 87.656250 -29.000000 7.787027
v 87.656250 29.000000 7.787027
v 87.656250 -29.000000 7.567027
v 87.656250 29.000000 7.567027
v 88.375000 -29.000000 7.957964
v 88.375000 29.000000 7.957964
v 88.375000 -29.000000 7.737964
v 88.375000 29.000000 7.737964
v 89.093750 -29.000000 8.122084
v 89.093750 29.000000 8.122084
v 89.093750 -29.000000 7.902084
v 89.093750 29.000000 7.902084
v 89.812500 -29.000000 8.277805
v 89.812500 29.000000 8.277805
v 89.812500 -29.000000 8.057805
v 89.812500 29.000000 8.057805
v 90.531250 -29.000000 8.423628
v 90.531250 29.000000 8.423628
v 90.531250 -29.000000 8.203628
v 90.531250 29.000000 8.203628
v 91.250000 -29.000000 8.558148
v 91.250000 29.000000 8.558148
v 91.250000 -29.000000 8.338148
v 91.250000 29.000000 8.338148
v 91.968750 -29.000000 8.680069
v 91.968750 29.000000 8.680069
v 91.968750 -29.000000 8.460069
v 91.968750 29.000000 8.460069
v 92.687500 -29.000000 8.788219
v 92.687500 29.000000 8.788219
v 92.687500 -29.000000 8.568219
v 92.687500 29.000000 8.568219
v 93.406250 -29.000000 8.881554
v 93.406250 29.000000 8.881554
v 93.406250 -29.000000 8.661554
v 93.406250 29.000000 8.661554
v 94.125000 -29.000000 8.959177
v 94.125000 29.000000 8.959177
v 94.125000 -29.000000 8.739177
v 94.125000 29.000000 8.739177
v 94.843750 -29.000000 9.020340
v 94.843750 29.000000 9.020340
v 94.843750 -29.000000 8.800340
v 94.843750 29.000000 8.800340
v 95.562500 -29.000000 9.064453
v 95.562500 29.000000 9.064453
v 95.562500 -29.000000 8.844453
v 95.562500 29.000000 8.844453
v 96.281250 -29.000000 9.091092
v 96.281250 29.000000 9.091092
v 96.281250 -29.000000 8.871092
v 96.281250 29.000000 8.871092
v 97.000000 -29.000000 9.100000
v 97.000000 29.000000 9.100000
v 97.000000 -29.000000 8.880000
v 97.000000 29.000000 8.880000
v 97.718750 -29.000000 9.091092
v 97.718750 29.000000 9.091092
v 97.718750 -29.000000 8.871092
v 97.718750 29.000000 8.871092
v 98.437500 -29.000000 9.064453
v 98.437500 29.000000 9.064453
v 98.437500 -29.000000 8.844453
v 98.437500 29.000000 8.844453
v 99.156250 -29.000000 9.020340
v 99.156250 29.000000 9.020340
v 99.156250 -29.000000 8.800340
v 99.156250 29.000000 8.800340
v 99.875000 -29.000000 8.959177
v 99.875000 29.000000 8.959177
v 99.875000 -29.000000 8.739177
v 99.875000 29.000000 8.739177
v 100.593750 -29.000000 8.881554
v 100.593750 29.000000 8.881554
v 100.593750 -29.000000 8.661554
v 100.593750 29.000000 8.661554
v 101.312500 -29.000000 8.788219
v 101.312500 29.000000 8.788219
v 101.312500 -29.000000 8.568219
v 101.312500 29.000000 8.568219
v 102.031250 -29.000000 8.680069
v 102.031250 29.000000 8.680069
v 102.031250 -29.000000 8.460069
v 102.031250 29.000000 8.460069
v 102.750000 -29.000000 8.558148
v 102.750000 29.000000 8.558148
v 102.750000 -29.000000 8.338148
v 102.750000 29.000000 8.338148
v 103.468750 -29.000000 8.423628
v 103.468750 29.000000 8.423628
v 103.468750 -29.000000 8.203628
v 103.468750 29.000000 8.203628
v 104.187500 -29.000000 8.277805
v 104.187500 29.000000 8.277805
v 104.187500 -29.000000 8.057805
v 104.187500 29.000000 8.057805
v 104.906250 -29.000000 8.122084
v 104.906250 29.000000 8.122084
v 104.906250 -29.000000 7.902084
v 104.906250 29.000000 7.902084
v 105.625000 -29.000000 7.957964
v 105.625000 29.000000 7.957964
v 105.625000 -29.000000 7.737964
v 105.625000 29.000000 7.737964
v 106.343750 -29.000000 7.787027
v 106.343750 29.000000 7.787027
v 106.343750 -29.000000 7.567027
v 106.343750 29.000000 7.567027
v 107.062500 -29.000000 7.610917
v 107.062500 29.000000 7.610917
v 107.062500 -29.000000 7.390917
v 107.062500 29.000000 7.390917
v 107.781250 -29.000000 7.431332
v 107.781250 29.000000 7.431332
v 107.781250 -29.000000 7.211332
v 107.781250 29.000000 7.211332
v 108.500000 -29.000000 7.250000
v 108.500000 29.000000 7.250000
v 108.500000 -29.000000 7.030000
v 108.500000 29.000000 7.030000
vn -0.24499249 0.00000000 0.96952498
vn 0.24499249 0.00000000 -0.96952498
vn -0.24388311 0.00000000 0.96980463
vn 0.24388311 0.00000000 -0.96980463
vn -0.24055995 0.00000000 0.97063428
vn 0.24055995 0.00000000 -0.97063428
vn -0.23503832 0.00000000 0.97198610
vn 0.23503832 0.00000000 -0.97198610
vn -0.22734492 0.00000000 0.97381430
vn 0.22734492 0.00000000 -0.97381430
vn -0.21751955 0.00000000 0.97605596
vn 0.21751955 0.00000000 -0.97605596
vn -0.20561735 0.00000000 0.97863247
vn 0.20561735 0.00000000 -0.97863247
vn -0.19171139 0.00000000 0.98145135
vn 0.19171139 0.00000000 -0.98145135
vn -0.17589532 0.00000000 0.98440888
vn 0.17589532 0.00000000 -0.98440888
vn -0.15828601 0.00000000 0.98739331
vn 0.15828601 0.00000000 -0.98739331
vn -0.13902554 0.00000000 0.99028880
vn 0.13902554 0.00000000 -0.99028880
vn -0.11828259 0.00000000 0.99297997
vn 0.11828259 0.00000000 -0.99297997
vn -0.09625256 0.00000000 0.99535694
vn 0.09625256 0.00000000 -0.99535694
vn -0.07315645 0.00000000 0.99732048
vn 0.07315645 0.00000000 -0.99732048
vn -0.04923823 0.00000000 0.99878706
vn 0.04923823 0.00000000 -0.99878706
vn -0.02476068 0.00000000 0.99969341
vn 0.02476068 0.00000000 -0.99969341
vn -0.00000000 0.00000000 1.00000000
vn 0.00000000 0.00000000 -1.00000000
vn 0.02476068 0.00000000 0.99969341
vn -0.02476068 0.00000000 -0.99969341
vn 0.04923823 0.00000000 0.99878706
vn -0.04923823 0.00000000 -0.99878706
vn 0.07315645 0.00000000 0.99732048
vn -0.07315645 0.00000000 -0.99732048
vn 0.09625256 0.00000000 0.99535694
vn -0.09625256 0.00000000 -0.99535694
vn 0.11828259 0.00000000 0.99297997
vn -0.11828259 0.00000000 -0.99297997
vn 0.13902554 0.00000000 0.99028880
vn -0.13902554 0.00000000 -0.99028880
vn 0.15828601 0.00000000 0.98739331
vn -0.15828601 0.00000000 -0.98739331
vn 0.17589532 0.00000000 0.98440888
vn -0.17589532 0.00000000 -0.98440888
vn 0.19171139 0.00000000 0.98145135
vn -0.19171139 0.00000000 -0.98145135
vn 0.20561735 0.00000000 0.97863247
vn -0.20561735 0.00000000 -0.97863247
vn 0.21751955 0.00000000 0.97605596
vn -0.21751955 0.00000000 -0.97605596
vn 0.22734492 0.00000000 0.97381430
vn -0.22734492 0.00000000 -0.97381430
vn 0.23503832 0.00000000 0.97198610
vn -0.23503832 0.00000000 -0.97198610
vn 0.24055995 0.00000000 0.97063428
vn -0.24055995 0.00000000 -0.97063428
vn 0.24388311 0.00000000 0.96980463
vn -0.24388311 0.00000000 -0.96980463
vn 0.24499249 0.00000000 0.96952498
vn -0.24499249 0.00000000 -0.96952498
vn 0.00000000 -1.00000000 0.00000000
vn 0.00000000 1.00000000 0.00000000
vn -1.00000000 0.00000000 0.00000000
vn 1.00000000 0.00000000 0.00000000
s 1
f 1//1 5//3 6//3
f 1//1 6//3 2//1
f 3//2 4//2 8//4
f 3//2 8//4 7//4
f 3//67 7//67 5//67
f 3//67 5//67 1//67
f 4//68 2//68 6//68
f 4//68 6//68 8//68
f 5//3 9//5 10//5
f 5//3 10//5 6//3
f 7//4 8//4 12//6
f 7//4 12//6 11//6
f 7//67 11//67 9//67
f 7//67 9//67 5//67
f 8//68 6//68 10//68
f 8//68 10//68 12//68
f 9//5 13//7 14//7
f 9//5 14//7 10//5
f 11//6 12//6 16//8
f 11//6 16//8 15//8
f 11//67 15//67 13//67
f 11//67 13//67 9//67
f 12//68 10//68 14//68
f 12//68 14//68 16//68
f 13//7 17//9 18//9
f 13//7 18//9 14//7
f 15//8 16//8 20//10
f 15//8 20//10 19//10
f 15//67 19//67 17//67
f 15//67 17//67 13//67
f 16//68 14//68 18//68
f 16//68 18//68 20//68
f 17//9 21//11 22//11
f 17//9 22//11 18//9
f 19//10 20//10 24//12
f 19//10 24//12 23//12
f 19//67 23//67 21//67
f 19//67 21//67 17//67
f 20//68 18//68 22//68
f 20//68 22//68 24//68
f 21//11 25//13 26//13
f 21//11 26//13 22//11
f 23//12 24//12 28//14
f 23//12 28//14 27//14
f 23//67 27//67 25//67
f 23//67 25//67 21//67
f 24//68 22//68 26//68
f 24//68 26//68 28//68
f 25//13 29//15 30//15
f 25//13 30//15 26//13
f 27//14 28//14 32//16
f 27//14 32//16 31//16
f 27//67 31//67 29//67
f 27//67 29//67 25//67
f 28//68 26//68 30//68
f 28//68 30//68 32//68
f 29//15 33//17 34//17
f 29//15 34//17 30//15
f 31//16 32//16 36//18
f 31//16 36//18 35//18
f 31//67 35//67 33//67
f 31//67 33//67 29//67
f 32//68 30//68 34//68
f 32//68 34//68 36//68
f 33//17 37//19 38//19
f 33//17 38//19 34//17
f 35//18 36//18 40//20
f 35//18 40//20 39//20
f 35//67 39//67 37//67
f 35//67 37//67 33//67
f 36//68 34//68 38//68
f 36//68 38//68 40//68
f 37//19 41//21 42//21
f 37//19 42//21 38//19
f 39//20 40//20 44//22
f 39//20 44//22 43//22
f 39//67 43//67 41//67
f 39//67 41//67 37//67
f 40//68 38//68 42//68
f 40//68 42//68 44//68
f 41//21 45//23 46//23
f 41//21 46//23 42//21
f 43//22 44//22 48//24
f 43//22 48//24 47//24
f 43//67 47//67 45//67
f 43//67 45//67 41//67
f 44//68 42//68 46//68
f 44//68 46//68 48//68
f 45//23 49//25 50//25
f 45//23 50//25 46//23
f 47//24 48//24 52//26
f 47//24 52//26 51//26
f 47//67 51//67 49//67
f 47//67 49//67 45//67
f 48//68 46//68 50//68
f 48//68 50//68 52//68
f 49//25 53//27 54//27
f 49//25 54//27 50//25
f 51//26 52//26 56//28
f 51//26 56//28 55//28
f 51//67 55//67 53//67
f 51//67 53//67 49//67
f 52//68 50//68 54//68
f 52//68 54//68 56//68
f 53//27 57//29 58//29
f 53//27 58//29 54//27
f 55//28 56//28 60//30
f 55//28 60//30 59//30
f 55//67 59//67 57//67
f 55//67 57//67 53//67
f 56//68 54//68 58//68
f 56//68 58//68 60//68
f 57//29 61//31 62//31
f 57//29 62//31 58//29
f 59//30 60//30 64//32
f 59//30 64//32 63//32
f 59//67 63//67 61//67
f 59//67 61//67 57//67
f 60//68 58//68 62//68
f 60//68 62//68 64//68
f 61//31 65//33 66//33
f 61//31 66//33 62//31
f 63//32 64//32 68//34
f 63//32 68//34 67//34
f 63//67 67//67 65//67
f 63//67 65//67 61//67
f 64//68 62//68 66//68
f 64//68 66//68 68//68
f 65//33 69//35 70//35
f 65//33 70//35 66//33
f 67//34 68//34 72//36
f 67//34 72//36 71//36
f 67//67 71//67 69//67
f 67//67 69//67 65//67
f 68//68 66//68 70//68
f 68//68 70//68 72//68
f 69//35 73//37 74//37
f 69//35 74//37 70//35
f 71//36 72//36 76//38
f 71//36 76//38 75//38
f 71//67 75//67 73//67
f 71//67 73//67 69//67
f 72//68 70//68 74//68
f 72//68 74//68 76//68
f 73//37 77//39 78//39
f 73//37 78//39 74//37
f 75//38 76//38 80//40
f 75//38 80//40 79//40
f 75//67 79//67 77//67
f 75//67 77//67 73//67
f 76//68 74//68 78//68
f 76//68 78//68 80//68
f 77//39 81//41 82//41
f 77//39 82//41 78//39
f 79//40 80//40 84//42
f 79//40 84//42 83//42
f 79//67 83//67 81//67
f 79//67 81//67 77//67
f 80//68 78//68 82//68
f 80//68 82//68 84//68
f 81//41 85//43 86//43
f 81//41 86//43 82//41
f 83//42 84//42 88//44
f 83//42 88//44 87//44
f 83//67 87//67 85//67
f 83//67 85//67 81//67
f 84//68 82//68 86//68
f 84//68 86//68 88//68
f 85//43 89//45 90//45
f 85//43 90//45 86//43
f 87//44 88//44 92//46
f 87//44 92//46 91//46
f 87//67 91//67 89//67
f 87//67 89//67 85//67
f 88//68 86//68 90//68
f 88//68 90//68 92//68
f 89//45 93//47 94//47
f 89//45 94//47 90//45
f 91//46 92//46 96//48
f 91//46 96//48 95//48
f 91//67 95//67 93//67
f 91//67 93//67 89//67
f 92//68 90//68 94//68
f 92//68 94//68 96//68
f 93//47 97//49 98//49
f 93//47 98//49 94//47
f 95//48 96//48 100//50
f 95//48 100//50 99//50
f 95//67 99//67 97//67
f 95//67 97//67 93//67
f 96//68 94//68 98//68
f 96//68 98//68 100//68
f 97//49 101//51 102//51
f 97//49 102//51 98//49
f 99//50 100//50 104//52
f 99//50 104//52 103//52
f 99//67 103//67 101//67
f 99//67 101//67 97//67
f 100//68 98//68 102//68
f 100//68 102//68 104//68
f 101//51 105//53 106//53
f 101//51 106//53 102//51
f 103//52 104//52 108//54
f 103//52 108//54 107//54
f 103//67 107//67 105//67
f 103//67 105//67 101//67
f 104//68 102//68 106//68
f 104//68 106//68 108//68
f 105//53 109//55 110//55
f 105//53 110//55 106//53
f 107//54 108//54 112//56
f 107//54 112//56 111//56
f 107//67 111//67 109//67
f 107//67 109//67 105//67
f 108//68 106//68 110//68
f 108//68 110//68 112//68
f 109//55 113//57 114//57
f 109//55 114//57 110//55
f 111//56 112//56 116//58
f 111//56 116//58 115//58
f 111//67 115//67 113//67
f 111//67 113//67 109//67
f 112//68 110//68 114//68
f 112//68 114//68 116//68
f 113//57 117//59 118//59
f 113//57 118//59 114//57
f 115//58 116//58 120//60
f 115//58 120//60 119//60
f 115//67 119//67 117//67
f 115//67 117//67 113//67
f 116//68 114//68 118//68
f 116//68 118//68 120//68
f 117//59 121//61 122//61
f 117//59 122//61 118//59
f 119//60 120//60 124//62
f 119//60 124//62 123//62
f 119//67 123//67 121//67
f 119//67 121//67 117//67
f 120//68 118//68 122//68
f 120//68 122//68 124//68
f 121//61 125//63 126//63
f 121//61 126//63 122//61
f 123//62 124//62 128//64
f 123//62 128//64 127//64
f 123//67 127//67 125//67
f 123//67 125//67 121//67
f 124//68 122//68 126//68
f 124//68 126//68 128//68
f 125//63 129//65 130//65
f 125//63 130//65 126//63
f 127//64 128//64 132//66
f 127//64 132//66 131//66
f 127//67 131//67 129//67
f 127//67 129//67 125//67
f 128//68 126//68 130//68
f 128//68 130//68 132//68
f 3//69 1//69 2//69
f 3//69 2//69 4//69
f 131//70 132//70 130//70
f 131//70 130//70 129//70
