# OSM way 431113163 stadium-only plaza surface
mtllib stadium_plaza_surface.mtl
o drone_cju_track_stadium_plaza_surface
usemtl cju_stadium_plaza
v 0.0000 0.0000 0.0040
v 70.2794 60.2564 0.0040
v -63.3405 62.5592 0.0040
v -79.7080 55.4785 0.0040
v -92.5799 48.0029 0.0040
v -101.1635 34.3685 0.0040
v -110.0262 15.0706 0.0040
v -110.4224 -4.0915 0.0040
v -105.1884 -21.7072 0.0040
v -94.8136 -40.9969 0.0040
v -80.2949 -54.7079 0.0040
v -60.0891 -65.1425 0.0040
v -36.1421 -66.3648 0.0040
v 38.5441 -65.5961 0.0040
v 67.0457 -65.3062 0.0040
v 88.2255 -53.0626 0.0040
v 103.0763 -37.2688 0.0040
v 113.1072 -20.2323 0.0040
v 115.7801 -2.3925 0.0040
v 110.5681 17.7482 0.0040
v 101.0799 34.4479 0.0040
v 89.4456 51.0248 0.0040
vn 0.000000 0.000000 1.000000
s 1
f 1//1 2//1 3//1
f 1//1 3//1 4//1
f 1//1 4//1 5//1
f 1//1 5//1 6//1
f 1//1 6//1 7//1
f 1//1 7//1 8//1
f 1//1 8//1 9//1
f 1//1 9//1 10//1
f 1//1 10//1 11//1
f 1//1 11//1 12//1
f 1//1 12//1 13//1
f 1//1 13//1 14//1
f 1//1 14//1 15//1
f 1//1 15//1 16//1
f 1//1 16//1 17//1
f 1//1 17//1 18//1
f 1//1 18//1 19//1
f 1//1 19//1 20//1
f 1//1 20//1 21//1
f 1//1 21//1 22//1
f 1//1 22//1 2//1
