# Procedurally generated continuous 400 m running-track surface
# One connected topological annulus; no external source asset
mtllib running_track_surface.mtl
o drone_cju_track_running_track_continuous_surface
usemtl continuous_track_red
v -42.195000 -31.920000 0.011000
v -42.195000 -41.680000 0.011000
v 42.195000 -31.920000 0.011000
v 42.195000 -41.680000 0.011000
v 43.239393 -31.902910 0.011000
v 43.558731 -41.657684 0.011000
v 44.282668 -31.851657 0.011000
v 44.921002 -41.590760 0.011000
v 45.323707 -31.766296 0.011000
v 46.280354 -41.479299 0.011000
v 46.361396 -31.646920 0.011000
v 47.635332 -41.323422 0.011000
v 47.394624 -31.493655 0.011000
v 48.984483 -41.123294 0.011000
v 48.422283 -31.306666 0.011000
v 50.326365 -40.879130 0.011000
v 49.443274 -31.086153 0.011000
v 51.659539 -40.591192 0.011000
v 50.456504 -30.832352 0.011000
v 52.982578 -40.259788 0.011000
v 51.460887 -30.545536 0.011000
v 54.294065 -39.885273 0.011000
v 52.455348 -30.226010 0.011000
v 55.592597 -39.468048 0.011000
v 53.438822 -29.874117 0.011000
v 56.876782 -39.008559 0.011000
v 54.410255 -29.490235 0.011000
v 58.145245 -38.507299 0.011000
v 55.368608 -29.074773 0.011000
v 59.396629 -37.964804 0.011000
v 56.312855 -28.628178 0.011000
v 60.629593 -37.381656 0.011000
v 57.241984 -28.150927 0.011000
v 61.842816 -36.758478 0.011000
v 58.155000 -27.643531 0.011000
v 63.035000 -36.095939 0.011000
v 59.050926 -27.106534 0.011000
v 64.204868 -35.394747 0.011000
v 59.928802 -26.540510 0.011000
v 65.351167 -34.655653 0.011000
v 60.787688 -25.946066 0.011000
v 66.472670 -33.879450 0.011000
v 61.626665 -25.323839 0.011000
v 67.568176 -33.066967 0.011000
v 62.444834 -24.674494 0.011000
v 68.636512 -32.219076 0.011000
v 63.241318 -23.998727 0.011000
v 69.676534 -31.336683 0.011000
v 64.015266 -23.297261 0.011000
v 70.687127 -30.420735 0.011000
v 64.765848 -22.570848 0.011000
v 71.667211 -29.472211 0.011000
v 65.492261 -21.820266 0.011000
v 72.615735 -28.492127 0.011000
v 66.193727 -21.046318 0.011000
v 73.531683 -27.481534 0.011000
v 66.869494 -20.249834 0.011000
v 74.414076 -26.441512 0.011000
v 67.518839 -19.431665 0.011000
v 75.261967 -25.373176 0.011000
v 68.141066 -18.592688 0.011000
v 76.074450 -24.277670 0.011000
v 68.735510 -17.733802 0.011000
v 76.850653 -23.156167 0.011000
v 69.301534 -16.855926 0.011000
v 77.589747 -22.009868 0.011000
v 69.838531 -15.960000 0.011000
v 78.290939 -20.840000 0.011000
v 70.345927 -15.046984 0.011000
v 78.953478 -19.647816 0.011000
v 70.823178 -14.117855 0.011000
v 79.576656 -18.434593 0.011000
v 71.269773 -13.173608 0.011000
v 80.159804 -17.201629 0.011000
v 71.685235 -12.215255 0.011000
v 80.702299 -15.950245 0.011000
v 72.069117 -11.243822 0.011000
v 81.203559 -14.681782 0.011000
v 72.421010 -10.260348 0.011000
v 81.663048 -13.397597 0.011000
v 72.740536 -9.265887 0.011000
v 82.080273 -12.099065 0.011000
v 73.027352 -8.261504 0.011000
v 82.454788 -10.787578 0.011000
v 73.281153 -7.248274 0.011000
v 82.786192 -9.464539 0.011000
v 73.501666 -6.227283 0.011000
v 83.074130 -8.131365 0.011000
v 73.688655 -5.199624 0.011000
v 83.318294 -6.789483 0.011000
v 73.841920 -4.166396 0.011000
v 83.518422 -5.440332 0.011000
v 73.961296 -3.128707 0.011000
v 83.674299 -4.085354 0.011000
v 74.046657 -2.087668 0.011000
v 83.785760 -2.726002 0.011000
v 74.097910 -1.044393 0.011000
v 83.852684 -1.363731 0.011000
v 74.115000 0.000000 0.011000
v 83.875000 0.000000 0.011000
v 74.097910 1.044393 0.011000
v 83.852684 1.363731 0.011000
v 74.046657 2.087668 0.011000
v 83.785760 2.726002 0.011000
v 73.961296 3.128707 0.011000
v 83.674299 4.085354 0.011000
v 73.841920 4.166396 0.011000
v 83.518422 5.440332 0.011000
v 73.688655 5.199624 0.011000
v 83.318294 6.789483 0.011000
v 73.501666 6.227283 0.011000
v 83.074130 8.131365 0.011000
v 73.281153 7.248274 0.011000
v 82.786192 9.464539 0.011000
v 73.027352 8.261504 0.011000
v 82.454788 10.787578 0.011000
v 72.740536 9.265887 0.011000
v 82.080273 12.099065 0.011000
v 72.421010 10.260348 0.011000
v 81.663048 13.397597 0.011000
v 72.069117 11.243822 0.011000
v 81.203559 14.681782 0.011000
v 71.685235 12.215255 0.011000
v 80.702299 15.950245 0.011000
v 71.269773 13.173608 0.011000
v 80.159804 17.201629 0.011000
v 70.823178 14.117855 0.011000
v 79.576656 18.434593 0.011000
v 70.345927 15.046984 0.011000
v 78.953478 19.647816 0.011000
v 69.838531 15.960000 0.011000
v 78.290939 20.840000 0.011000
v 69.301534 16.855926 0.011000
v 77.589747 22.009868 0.011000
v 68.735510 17.733802 0.011000
v 76.850653 23.156167 0.011000
v 68.141066 18.592688 0.011000
v 76.074450 24.277670 0.011000
v 67.518839 19.431665 0.011000
v 75.261967 25.373176 0.011000
v 66.869494 20.249834 0.011000
v 74.414076 26.441512 0.011000
v 66.193727 21.046318 0.011000
v 73.531683 27.481534 0.011000
v 65.492261 21.820266 0.011000
v 72.615735 28.492127 0.011000
v 64.765848 22.570848 0.011000
v 71.667211 29.472211 0.011000
v 64.015266 23.297261 0.011000
v 70.687127 30.420735 0.011000
v 63.241318 23.998727 0.011000
v 69.676534 31.336683 0.011000
v 62.444834 24.674494 0.011000
v 68.636512 32.219076 0.011000
v 61.626665 25.323839 0.011000
v 67.568176 33.066967 0.011000
v 60.787688 25.946066 0.011000
v 66.472670 33.879450 0.011000
v 59.928802 26.540510 0.011000
v 65.351167 34.655653 0.011000
v 59.050926 27.106534 0.011000
v 64.204868 35.394747 0.011000
v 58.155000 27.643531 0.011000
v 63.035000 36.095939 0.011000
v 57.241984 28.150927 0.011000
v 61.842816 36.758478 0.011000
v 56.312855 28.628178 0.011000
v 60.629593 37.381656 0.011000
v 55.368608 29.074773 0.011000
v 59.396629 37.964804 0.011000
v 54.410255 29.490235 0.011000
v 58.145245 38.507299 0.011000
v 53.438822 29.874117 0.011000
v 56.876782 39.008559 0.011000
v 52.455348 30.226010 0.011000
v 55.592597 39.468048 0.011000
v 51.460887 30.545536 0.011000
v 54.294065 39.885273 0.011000
v 50.456504 30.832352 0.011000
v 52.982578 40.259788 0.011000
v 49.443274 31.086153 0.011000
v 51.659539 40.591192 0.011000
v 48.422283 31.306666 0.011000
v 50.326365 40.879130 0.011000
v 47.394624 31.493655 0.011000
v 48.984483 41.123294 0.011000
v 46.361396 31.646920 0.011000
v 47.635332 41.323422 0.011000
v 45.323707 31.766296 0.011000
v 46.280354 41.479299 0.011000
v 44.282668 31.851657 0.011000
v 44.921002 41.590760 0.011000
v 43.239393 31.902910 0.011000
v 43.558731 41.657684 0.011000
v 42.195000 31.920000 0.011000
v 42.195000 41.680000 0.011000
v -42.195000 31.920000 0.011000
v -42.195000 41.680000 0.011000
v -43.239393 31.902910 0.011000
v -43.558731 41.657684 0.011000
v -44.282668 31.851657 0.011000
v -44.921002 41.590760 0.011000
v -45.323707 31.766296 0.011000
v -46.280354 41.479299 0.011000
v -46.361396 31.646920 0.011000
v -47.635332 41.323422 0.011000
v -47.394624 31.493655 0.011000
v -48.984483 41.123294 0.011000
v -48.422283 31.306666 0.011000
v -50.326365 40.879130 0.011000
v -49.443274 31.086153 0.011000
v -51.659539 40.591192 0.011000
v -50.456504 30.832352 0.011000
v -52.982578 40.259788 0.011000
v -51.460887 30.545536 0.011000
v -54.294065 39.885273 0.011000
v -52.455348 30.226010 0.011000
v -55.592597 39.468048 0.011000
v -53.438822 29.874117 0.011000
v -56.876782 39.008559 0.011000
v -54.410255 29.490235 0.011000
v -58.145245 38.507299 0.011000
v -55.368608 29.074773 0.011000
v -59.396629 37.964804 0.011000
v -56.312855 28.628178 0.011000
v -60.629593 37.381656 0.011000
v -57.241984 28.150927 0.011000
v -61.842816 36.758478 0.011000
v -58.155000 27.643531 0.011000
v -63.035000 36.095939 0.011000
v -59.050926 27.106534 0.011000
v -64.204868 35.394747 0.011000
v -59.928802 26.540510 0.011000
v -65.351167 34.655653 0.011000
v -60.787688 25.946066 0.011000
v -66.472670 33.879450 0.011000
v -61.626665 25.323839 0.011000
v -67.568176 33.066967 0.011000
v -62.444834 24.674494 0.011000
v -68.636512 32.219076 0.011000
v -63.241318 23.998727 0.011000
v -69.676534 31.336683 0.011000
v -64.015266 23.297261 0.011000
v -70.687127 30.420735 0.011000
v -64.765848 22.570848 0.011000
v -71.667211 29.472211 0.011000
v -65.492261 21.820266 0.011000
v -72.615735 28.492127 0.011000
v -66.193727 21.046318 0.011000
v -73.531683 27.481534 0.011000
v -66.869494 20.249834 0.011000
v -74.414076 26.441512 0.011000
v -67.518839 19.431665 0.011000
v -75.261967 25.373176 0.011000
v -68.141066 18.592688 0.011000
v -76.074450 24.277670 0.011000
v -68.735510 17.733802 0.011000
v -76.850653 23.156167 0.011000
v -69.301534 16.855926 0.011000
v -77.589747 22.009868 0.011000
v -69.838531 15.960000 0.011000
v -78.290939 20.840000 0.011000
v -70.345927 15.046984 0.011000
v -78.953478 19.647816 0.011000
v -70.823178 14.117855 0.011000
v -79.576656 18.434593 0.011000
v -71.269773 13.173608 0.011000
v -80.159804 17.201629 0.011000
v -71.685235 12.215255 0.011000
v -80.702299 15.950245 0.011000
v -72.069117 11.243822 0.011000
v -81.203559 14.681782 0.011000
v -72.421010 10.260348 0.011000
v -81.663048 13.397597 0.011000
v -72.740536 9.265887 0.011000
v -82.080273 12.099065 0.011000
v -73.027352 8.261504 0.011000
v -82.454788 10.787578 0.011000
v -73.281153 7.248274 0.011000
v -82.786192 9.464539 0.011000
v -73.501666 6.227283 0.011000
v -83.074130 8.131365 0.011000
v -73.688655 5.199624 0.011000
v -83.318294 6.789483 0.011000
v -73.841920 4.166396 0.011000
v -83.518422 5.440332 0.011000
v -73.961296 3.128707 0.011000
v -83.674299 4.085354 0.011000
v -74.046657 2.087668 0.011000
v -83.785760 2.726002 0.011000
v -74.097910 1.044393 0.011000
v -83.852684 1.363731 0.011000
v -74.115000 0.000000 0.011000
v -83.875000 0.000000 0.011000
v -74.097910 -1.044393 0.011000
v -83.852684 -1.363731 0.011000
v -74.046657 -2.087668 0.011000
v -83.785760 -2.726002 0.011000
v -73.961296 -3.128707 0.011000
v -83.674299 -4.085354 0.011000
v -73.841920 -4.166396 0.011000
v -83.518422 -5.440332 0.011000
v -73.688655 -5.199624 0.011000
v -83.318294 -6.789483 0.011000
v -73.501666 -6.227283 0.011000
v -83.074130 -8.131365 0.011000
v -73.281153 -7.248274 0.011000
v -82.786192 -9.464539 0.011000
v -73.027352 -8.261504 0.011000
v -82.454788 -10.787578 0.011000
v -72.740536 -9.265887 0.011000
v -82.080273 -12.099065 0.011000
v -72.421010 -10.260348 0.011000
v -81.663048 -13.397597 0.011000
v -72.069117 -11.243822 0.011000
v -81.203559 -14.681782 0.011000
v -71.685235 -12.215255 0.011000
v -80.702299 -15.950245 0.011000
v -71.269773 -13.173608 0.011000
v -80.159804 -17.201629 0.011000
v -70.823178 -14.117855 0.011000
v -79.576656 -18.434593 0.011000
v -70.345927 -15.046984 0.011000
v -78.953478 -19.647816 0.011000
v -69.838531 -15.960000 0.011000
v -78.290939 -20.840000 0.011000
v -69.301534 -16.855926 0.011000
v -77.589747 -22.009868 0.011000
v -68.735510 -17.733802 0.011000
v -76.850653 -23.156167 0.011000
v -68.141066 -18.592688 0.011000
v -76.074450 -24.277670 0.011000
v -67.518839 -19.431665 0.011000
v -75.261967 -25.373176 0.011000
v -66.869494 -20.249834 0.011000
v -74.414076 -26.441512 0.011000
v -66.193727 -21.046318 0.011000
v -73.531683 -27.481534 0.011000
v -65.492261 -21.820266 0.011000
v -72.615735 -28.492127 0.011000
v -64.765848 -22.570848 0.011000
v -71.667211 -29.472211 0.011000
v -64.015266 -23.297261 0.011000
v -70.687127 -30.420735 0.011000
v -63.241318 -23.998727 0.011000
v -69.676534 -31.336683 0.011000
v -62.444834 -24.674494 0.011000
v -68.636512 -32.219076 0.011000
v -61.626665 -25.323839 0.011000
v -67.568176 -33.066967 0.011000
v -60.787688 -25.946066 0.011000
v -66.472670 -33.879450 0.011000
v -59.928802 -26.540510 0.011000
v -65.351167 -34.655653 0.011000
v -59.050926 -27.106534 0.011000
v -64.204868 -35.394747 0.011000
v -58.155000 -27.643531 0.011000
v -63.035000 -36.095939 0.011000
v -57.241984 -28.150927 0.011000
v -61.842816 -36.758478 0.011000
v -56.312855 -28.628178 0.011000
v -60.629593 -37.381656 0.011000
v -55.368608 -29.074773 0.011000
v -59.396629 -37.964804 0.011000
v -54.410255 -29.490235 0.011000
v -58.145245 -38.507299 0.011000
v -53.438822 -29.874117 0.011000
v -56.876782 -39.008559 0.011000
v -52.455348 -30.226010 0.011000
v -55.592597 -39.468048 0.011000
v -51.460887 -30.545536 0.011000
v -54.294065 -39.885273 0.011000
v -50.456504 -30.832352 0.011000
v -52.982578 -40.259788 0.011000
v -49.443274 -31.086153 0.011000
v -51.659539 -40.591192 0.011000
v -48.422283 -31.306666 0.011000
v -50.326365 -40.879130 0.011000
v -47.394624 -31.493655 0.011000
v -48.984483 -41.123294 0.011000
v -46.361396 -31.646920 0.011000
v -47.635332 -41.323422 0.011000
v -45.323707 -31.766296 0.011000
v -46.280354 -41.479299 0.011000
v -44.282668 -31.851657 0.011000
v -44.921002 -41.590760 0.011000
v -43.239393 -31.902910 0.011000
v -43.558731 -41.657684 0.011000
vn 0.000000 0.000000 1.000000
s 1
f 1//1 2//1 4//1
f 1//1 4//1 3//1
f 3//1 4//1 6//1
f 3//1 6//1 5//1
f 5//1 6//1 8//1
f 5//1 8//1 7//1
f 7//1 8//1 10//1
f 7//1 10//1 9//1
f 9//1 10//1 12//1
f 9//1 12//1 11//1
f 11//1 12//1 14//1
f 11//1 14//1 13//1
f 13//1 14//1 16//1
f 13//1 16//1 15//1
f 15//1 16//1 18//1
f 15//1 18//1 17//1
f 17//1 18//1 20//1
f 17//1 20//1 19//1
f 19//1 20//1 22//1
f 19//1 22//1 21//1
f 21//1 22//1 24//1
f 21//1 24//1 23//1
f 23//1 24//1 26//1
f 23//1 26//1 25//1
f 25//1 26//1 28//1
f 25//1 28//1 27//1
f 27//1 28//1 30//1
f 27//1 30//1 29//1
f 29//1 30//1 32//1
f 29//1 32//1 31//1
f 31//1 32//1 34//1
f 31//1 34//1 33//1
f 33//1 34//1 36//1
f 33//1 36//1 35//1
f 35//1 36//1 38//1
f 35//1 38//1 37//1
f 37//1 38//1 40//1
f 37//1 40//1 39//1
f 39//1 40//1 42//1
f 39//1 42//1 41//1
f 41//1 42//1 44//1
f 41//1 44//1 43//1
f 43//1 44//1 46//1
f 43//1 46//1 45//1
f 45//1 46//1 48//1
f 45//1 48//1 47//1
f 47//1 48//1 50//1
f 47//1 50//1 49//1
f 49//1 50//1 52//1
f 49//1 52//1 51//1
f 51//1 52//1 54//1
f 51//1 54//1 53//1
f 53//1 54//1 56//1
f 53//1 56//1 55//1
f 55//1 56//1 58//1
f 55//1 58//1 57//1
f 57//1 58//1 60//1
f 57//1 60//1 59//1
f 59//1 60//1 62//1
f 59//1 62//1 61//1
f 61//1 62//1 64//1
f 61//1 64//1 63//1
f 63//1 64//1 66//1
f 63//1 66//1 65//1
f 65//1 66//1 68//1
f 65//1 68//1 67//1
f 67//1 68//1 70//1
f 67//1 70//1 69//1
f 69//1 70//1 72//1
f 69//1 72//1 71//1
f 71//1 72//1 74//1
f 71//1 74//1 73//1
f 73//1 74//1 76//1
f 73//1 76//1 75//1
f 75//1 76//1 78//1
f 75//1 78//1 77//1
f 77//1 78//1 80//1
f 77//1 80//1 79//1
f 79//1 80//1 82//1
f 79//1 82//1 81//1
f 81//1 82//1 84//1
f 81//1 84//1 83//1
f 83//1 84//1 86//1
f 83//1 86//1 85//1
f 85//1 86//1 88//1
f 85//1 88//1 87//1
f 87//1 88//1 90//1
f 87//1 90//1 89//1
f 89//1 90//1 92//1
f 89//1 92//1 91//1
f 91//1 92//1 94//1
f 91//1 94//1 93//1
f 93//1 94//1 96//1
f 93//1 96//1 95//1
f 95//1 96//1 98//1
f 95//1 98//1 97//1
f 97//1 98//1 100//1
f 97//1 100//1 99//1
f 99//1 100//1 102//1
f 99//1 102//1 101//1
f 101//1 102//1 104//1
f 101//1 104//1 103//1
f 103//1 104//1 106//1
f 103//1 106//1 105//1
f 105//1 106//1 108//1
f 105//1 108//1 107//1
f 107//1 108//1 110//1
f 107//1 110//1 109//1
f 109//1 110//1 112//1
f 109//1 112//1 111//1
f 111//1 112//1 114//1
f 111//1 114//1 113//1
f 113//1 114//1 116//1
f 113//1 116//1 115//1
f 115//1 116//1 118//1
f 115//1 118//1 117//1
f 117//1 118//1 120//1
f 117//1 120//1 119//1
f 119//1 120//1 122//1
f 119//1 122//1 121//1
f 121//1 122//1 124//1
f 121//1 124//1 123//1
f 123//1 124//1 126//1
f 123//1 126//1 125//1
f 125//1 126//1 128//1
f 125//1 128//1 127//1
f 127//1 128//1 130//1
f 127//1 130//1 129//1
f 129//1 130//1 132//1
f 129//1 132//1 131//1
f 131//1 132//1 134//1
f 131//1 134//1 133//1
f 133//1 134//1 136//1
f 133//1 136//1 135//1
f 135//1 136//1 138//1
f 135//1 138//1 137//1
f 137//1 138//1 140//1
f 137//1 140//1 139//1
f 139//1 140//1 142//1
f 139//1 142//1 141//1
f 141//1 142//1 144//1
f 141//1 144//1 143//1
f 143//1 144//1 146//1
f 143//1 146//1 145//1
f 145//1 146//1 148//1
f 145//1 148//1 147//1
f 147//1 148//1 150//1
f 147//1 150//1 149//1
f 149//1 150//1 152//1
f 149//1 152//1 151//1
f 151//1 152//1 154//1
f 151//1 154//1 153//1
f 153//1 154//1 156//1
f 153//1 156//1 155//1
f 155//1 156//1 158//1
f 155//1 158//1 157//1
f 157//1 158//1 160//1
f 157//1 160//1 159//1
f 159//1 160//1 162//1
f 159//1 162//1 161//1
f 161//1 162//1 164//1
f 161//1 164//1 163//1
f 163//1 164//1 166//1
f 163//1 166//1 165//1
f 165//1 166//1 168//1
f 165//1 168//1 167//1
f 167//1 168//1 170//1
f 167//1 170//1 169//1
f 169//1 170//1 172//1
f 169//1 172//1 171//1
f 171//1 172//1 174//1
f 171//1 174//1 173//1
f 173//1 174//1 176//1
f 173//1 176//1 175//1
f 175//1 176//1 178//1
f 175//1 178//1 177//1
f 177//1 178//1 180//1
f 177//1 180//1 179//1
f 179//1 180//1 182//1
f 179//1 182//1 181//1
f 181//1 182//1 184//1
f 181//1 184//1 183//1
f 183//1 184//1 186//1
f 183//1 186//1 185//1
f 185//1 186//1 188//1
f 185//1 188//1 187//1
f 187//1 188//1 190//1
f 187//1 190//1 189//1
f 189//1 190//1 192//1
f 189//1 192//1 191//1
f 191//1 192//1 194//1
f 191//1 194//1 193//1
f 193//1 194//1 196//1
f 193//1 196//1 195//1
f 195//1 196//1 198//1
f 195//1 198//1 197//1
f 197//1 198//1 200//1
f 197//1 200//1 199//1
f 199//1 200//1 202//1
f 199//1 202//1 201//1
f 201//1 202//1 204//1
f 201//1 204//1 203//1
f 203//1 204//1 206//1
f 203//1 206//1 205//1
f 205//1 206//1 208//1
f 205//1 208//1 207//1
f 207//1 208//1 210//1
f 207//1 210//1 209//1
f 209//1 210//1 212//1
f 209//1 212//1 211//1
f 211//1 212//1 214//1
f 211//1 214//1 213//1
f 213//1 214//1 216//1
f 213//1 216//1 215//1
f 215//1 216//1 218//1
f 215//1 218//1 217//1
f 217//1 218//1 220//1
f 217//1 220//1 219//1
f 219//1 220//1 222//1
f 219//1 222//1 221//1
f 221//1 222//1 224//1
f 221//1 224//1 223//1
f 223//1 224//1 226//1
f 223//1 226//1 225//1
f 225//1 226//1 228//1
f 225//1 228//1 227//1
f 227//1 228//1 230//1
f 227//1 230//1 229//1
f 229//1 230//1 232//1
f 229//1 232//1 231//1
f 231//1 232//1 234//1
f 231//1 234//1 233//1
f 233//1 234//1 236//1
f 233//1 236//1 235//1
f 235//1 236//1 238//1
f 235//1 238//1 237//1
f 237//1 238//1 240//1
f 237//1 240//1 239//1
f 239//1 240//1 242//1
f 239//1 242//1 241//1
f 241//1 242//1 244//1
f 241//1 244//1 243//1
f 243//1 244//1 246//1
f 243//1 246//1 245//1
f 245//1 246//1 248//1
f 245//1 248//1 247//1
f 247//1 248//1 250//1
f 247//1 250//1 249//1
f 249//1 250//1 252//1
f 249//1 252//1 251//1
f 251//1 252//1 254//1
f 251//1 254//1 253//1
f 253//1 254//1 256//1
f 253//1 256//1 255//1
f 255//1 256//1 258//1
f 255//1 258//1 257//1
f 257//1 258//1 260//1
f 257//1 260//1 259//1
f 259//1 260//1 262//1
f 259//1 262//1 261//1
f 261//1 262//1 264//1
f 261//1 264//1 263//1
f 263//1 264//1 266//1
f 263//1 266//1 265//1
f 265//1 266//1 268//1
f 265//1 268//1 267//1
f 267//1 268//1 270//1
f 267//1 270//1 269//1
f 269//1 270//1 272//1
f 269//1 272//1 271//1
f 271//1 272//1 274//1
f 271//1 274//1 273//1
f 273//1 274//1 276//1
f 273//1 276//1 275//1
f 275//1 276//1 278//1
f 275//1 278//1 277//1
f 277//1 278//1 280//1
f 277//1 280//1 279//1
f 279//1 280//1 282//1
f 279//1 282//1 281//1
f 281//1 282//1 284//1
f 281//1 284//1 283//1
f 283//1 284//1 286//1
f 283//1 286//1 285//1
f 285//1 286//1 288//1
f 285//1 288//1 287//1
f 287//1 288//1 290//1
f 287//1 290//1 289//1
f 289//1 290//1 292//1
f 289//1 292//1 291//1
f 291//1 292//1 294//1
f 291//1 294//1 293//1
f 293//1 294//1 296//1
f 293//1 296//1 295//1
f 295//1 296//1 298//1
f 295//1 298//1 297//1
f 297//1 298//1 300//1
f 297//1 300//1 299//1
f 299//1 300//1 302//1
f 299//1 302//1 301//1
f 301//1 302//1 304//1
f 301//1 304//1 303//1
f 303//1 304//1 306//1
f 303//1 306//1 305//1
f 305//1 306//1 308//1
f 305//1 308//1 307//1
f 307//1 308//1 310//1
f 307//1 310//1 309//1
f 309//1 310//1 312//1
f 309//1 312//1 311//1
f 311//1 312//1 314//1
f 311//1 314//1 313//1
f 313//1 314//1 316//1
f 313//1 316//1 315//1
f 315//1 316//1 318//1
f 315//1 318//1 317//1
f 317//1 318//1 320//1
f 317//1 320//1 319//1
f 319//1 320//1 322//1
f 319//1 322//1 321//1
f 321//1 322//1 324//1
f 321//1 324//1 323//1
f 323//1 324//1 326//1
f 323//1 326//1 325//1
f 325//1 326//1 328//1
f 325//1 328//1 327//1
f 327//1 328//1 330//1
f 327//1 330//1 329//1
f 329//1 330//1 332//1
f 329//1 332//1 331//1
f 331//1 332//1 334//1
f 331//1 334//1 333//1
f 333//1 334//1 336//1
f 333//1 336//1 335//1
f 335//1 336//1 338//1
f 335//1 338//1 337//1
f 337//1 338//1 340//1
f 337//1 340//1 339//1
f 339//1 340//1 342//1
f 339//1 342//1 341//1
f 341//1 342//1 344//1
f 341//1 344//1 343//1
f 343//1 344//1 346//1
f 343//1 346//1 345//1
f 345//1 346//1 348//1
f 345//1 348//1 347//1
f 347//1 348//1 350//1
f 347//1 350//1 349//1
f 349//1 350//1 352//1
f 349//1 352//1 351//1
f 351//1 352//1 354//1
f 351//1 354//1 353//1
f 353//1 354//1 356//1
f 353//1 356//1 355//1
f 355//1 356//1 358//1
f 355//1 358//1 357//1
f 357//1 358//1 360//1
f 357//1 360//1 359//1
f 359//1 360//1 362//1
f 359//1 362//1 361//1
f 361//1 362//1 364//1
f 361//1 364//1 363//1
f 363//1 364//1 366//1
f 363//1 366//1 365//1
f 365//1 366//1 368//1
f 365//1 368//1 367//1
f 367//1 368//1 370//1
f 367//1 370//1 369//1
f 369//1 370//1 372//1
f 369//1 372//1 371//1
f 371//1 372//1 374//1
f 371//1 374//1 373//1
f 373//1 374//1 376//1
f 373//1 376//1 375//1
f 375//1 376//1 378//1
f 375//1 378//1 377//1
f 377//1 378//1 380//1
f 377//1 380//1 379//1
f 379//1 380//1 382//1
f 379//1 382//1 381//1
f 381//1 382//1 384//1
f 381//1 384//1 383//1
f 383//1 384//1 386//1
f 383//1 386//1 385//1
f 385//1 386//1 388//1
f 385//1 388//1 387//1
f 387//1 388//1 2//1
f 387//1 2//1 1//1
